<svg id="visual" viewBox="0 0 540 960" width="540" height="960" xmlns="http://www.w3.org/2000/svg" xmlns:xlink="http://www.w3.org/1999/xlink" version="1.1"><path d="M0 813L12.8 817.7C25.7 822.3 51.3 831.7 77 831.8C102.7 832 128.3 823 154 823.2C179.7 823.3 205.3 832.7 231.2 815.8C257 799 283 756 308.8 746.8C334.7 737.7 360.3 762.3 386 767.7C411.7 773 437.3 759 463 750.7C488.7 742.3 514.3 739.7 527.2 738.3L540 737L540 961L527.2 961C514.3 961 488.7 961 463 961C437.3 961 411.7 961 386 961C360.3 961 334.7 961 308.8 961C283 961 257 961 231.2 961C205.3 961 179.7 961 154 961C128.3 961 102.7 961 77 961C51.3 961 25.7 961 12.8 961L0 961Z" fill="#182137"></path><path d="M0 776L12.8 789C25.7 802 51.3 828 77 826.5C102.7 825 128.3 796 154 782C179.7 768 205.3 769 231.2 777.3C257 785.7 283 801.3 308.8 805C334.7 808.7 360.3 800.3 386 791.5C411.7 782.7 437.3 773.3 463 770.2C488.7 767 514.3 770 527.2 771.5L540 773L540 961L527.2 961C514.3 961 488.7 961 463 961C437.3 961 411.7 961 386 961C360.3 961 334.7 961 308.8 961C283 961 257 961 231.2 961C205.3 961 179.7 961 154 961C128.3 961 102.7 961 77 961C51.3 961 25.7 961 12.8 961L0 961Z" fill="#313670"></path><path d="M0 887L12.8 888.3C25.7 889.7 51.3 892.3 77 879.3C102.7 866.3 128.3 837.7 154 826.2C179.7 814.7 205.3 820.3 231.2 835.8C257 851.3 283 876.7 308.8 875.2C334.7 873.7 360.3 845.3 386 829.8C411.7 814.3 437.3 811.7 463 824.8C488.7 838 514.3 867 527.2 881.5L540 896L540 961L527.2 961C514.3 961 488.7 961 463 961C437.3 961 411.7 961 386 961C360.3 961 334.7 961 308.8 961C283 961 257 961 231.2 961C205.3 961 179.7 961 154 961C128.3 961 102.7 961 77 961C51.3 961 25.7 961 12.8 961L0 961Z" fill="#6645a6"></path><path d="M0 897L12.8 901.7C25.7 906.3 51.3 915.7 77 919.2C102.7 922.7 128.3 920.3 154 915C179.7 909.7 205.3 901.3 231.2 904.5C257 907.7 283 922.3 308.8 919.2C334.7 916 360.3 895 386 890.3C411.7 885.7 437.3 897.3 463 897.2C488.7 897 514.3 885 527.2 879L540 873L540 961L527.2 961C514.3 961 488.7 961 463 961C437.3 961 411.7 961 386 961C360.3 961 334.7 961 308.8 961C283 961 257 961 231.2 961C205.3 961 179.7 961 154 961C128.3 961 102.7 961 77 961C51.3 961 25.7 961 12.8 961L0 961Z" fill="#af47d2"></path></svg>