<svg id="visual" viewBox="0 0 540 960" width="540" height="960" xmlns="http://www.w3.org/2000/svg" xmlns:xlink="http://www.w3.org/1999/xlink" version="1.1"><path d="M0 660L12.8 651.7C25.7 643.3 51.3 626.7 77 619.8C102.7 613 128.3 616 154 627.8C179.7 639.7 205.3 660.3 231.2 660.2C257 660 283 639 308.8 619.3C334.7 599.7 360.3 581.3 386 582.3C411.7 583.3 437.3 603.7 463 616.7C488.7 629.7 514.3 635.3 527.2 638.2L540 641L540 961L527.2 961C514.3 961 488.7 961 463 961C437.3 961 411.7 961 386 961C360.3 961 334.7 961 308.8 961C283 961 257 961 231.2 961C205.3 961 179.7 961 154 961C128.3 961 102.7 961 77 961C51.3 961 25.7 961 12.8 961L0 961Z" fill="#182137"></path><path d="M0 683L12.8 693.7C25.7 704.3 51.3 725.7 77 721.5C102.7 717.3 128.3 687.7 154 690.5C179.7 693.3 205.3 728.7 231.2 744.5C257 760.3 283 756.7 308.8 740.3C334.7 724 360.3 695 386 675.5C411.7 656 437.3 646 463 647.7C488.7 649.3 514.3 662.7 527.2 669.3L540 676L540 961L527.2 961C514.3 961 488.7 961 463 961C437.3 961 411.7 961 386 961C360.3 961 334.7 961 308.8 961C283 961 257 961 231.2 961C205.3 961 179.7 961 154 961C128.3 961 102.7 961 77 961C51.3 961 25.7 961 12.8 961L0 961Z" fill="#151e31"></path><path d="M0 785L12.8 779.2C25.7 773.3 51.3 761.7 77 748C102.7 734.3 128.3 718.7 154 712.7C179.7 706.7 205.3 710.3 231.2 715.7C257 721 283 728 308.8 741.7C334.7 755.3 360.3 775.7 386 783.3C411.7 791 437.3 786 463 782.5C488.7 779 514.3 777 527.2 776L540 775L540 961L527.2 961C514.3 961 488.7 961 463 961C437.3 961 411.7 961 386 961C360.3 961 334.7 961 308.8 961C283 961 257 961 231.2 961C205.3 961 179.7 961 154 961C128.3 961 102.7 961 77 961C51.3 961 25.7 961 12.8 961L0 961Z" fill="#131b2c"></path><path d="M0 864L12.8 860.7C25.7 857.3 51.3 850.7 77 847.3C102.7 844 128.3 844 154 839C179.7 834 205.3 824 231.2 813.7C257 803.3 283 792.7 308.8 799.7C334.7 806.7 360.3 831.3 386 834.5C411.7 837.7 437.3 819.3 463 814.7C488.7 810 514.3 819 527.2 823.5L540 828L540 961L527.2 961C514.3 961 488.7 961 463 961C437.3 961 411.7 961 386 961C360.3 961 334.7 961 308.8 961C283 961 257 961 231.2 961C205.3 961 179.7 961 154 961C128.3 961 102.7 961 77 961C51.3 961 25.7 961 12.8 961L0 961Z" fill="#111827"></path><path d="M0 879L12.8 872.5C25.7 866 51.3 853 77 850.5C102.7 848 128.3 856 154 865.7C179.7 875.3 205.3 886.7 231.2 890.8C257 895 283 892 308.8 893.8C334.7 895.7 360.3 902.3 386 895C411.7 887.7 437.3 866.3 463 865C488.7 863.7 514.3 882.3 527.2 891.7L540 901L540 961L527.2 961C514.3 961 488.7 961 463 961C437.3 961 411.7 961 386 961C360.3 961 334.7 961 308.8 961C283 961 257 961 231.2 961C205.3 961 179.7 961 154 961C128.3 961 102.7 961 77 961C51.3 961 25.7 961 12.8 961L0 961Z" fill="#0f1422"></path></svg>