<svg id="visual" viewBox="0 0 540 960" width="540" height="960" xmlns="http://www.w3.org/2000/svg" xmlns:xlink="http://www.w3.org/1999/xlink" version="1.1"><path d="M0 865L12.8 867.2C25.7 869.3 51.3 873.7 77 864.5C102.7 855.3 128.3 832.7 154 831.5C179.7 830.3 205.3 850.7 231.2 855.7C257 860.7 283 850.3 308.8 853C334.7 855.7 360.3 871.3 386 876.7C411.7 882 437.3 877 463 864.7C488.7 852.3 514.3 832.7 527.2 822.8L540 813L540 961L527.2 961C514.3 961 488.7 961 463 961C437.3 961 411.7 961 386 961C360.3 961 334.7 961 308.8 961C283 961 257 961 231.2 961C205.3 961 179.7 961 154 961C128.3 961 102.7 961 77 961C51.3 961 25.7 961 12.8 961L0 961Z" fill="#182137"></path><path d="M0 862L12.8 870.8C25.7 879.7 51.3 897.3 77 898.2C102.7 899 128.3 883 154 880.7C179.7 878.3 205.3 889.7 231.2 888.5C257 887.3 283 873.7 308.8 872.2C334.7 870.7 360.3 881.3 386 887C411.7 892.7 437.3 893.3 463 895.5C488.7 897.7 514.3 901.3 527.2 903.2L540 905L540 961L527.2 961C514.3 961 488.7 961 463 961C437.3 961 411.7 961 386 961C360.3 961 334.7 961 308.8 961C283 961 257 961 231.2 961C205.3 961 179.7 961 154 961C128.3 961 102.7 961 77 961C51.3 961 25.7 961 12.8 961L0 961Z" fill="#483f8c"></path><path d="M0 919L12.8 917.5C25.7 916 51.3 913 77 907.3C102.7 901.7 128.3 893.3 154 895.3C179.7 897.3 205.3 909.7 231.2 917.2C257 924.7 283 927.3 308.8 922.3C334.7 917.3 360.3 904.7 386 904.3C411.7 904 437.3 916 463 915.5C488.7 915 514.3 902 527.2 895.5L540 889L540 961L527.2 961C514.3 961 488.7 961 463 961C437.3 961 411.7 961 386 961C360.3 961 334.7 961 308.8 961C283 961 257 961 231.2 961C205.3 961 179.7 961 154 961C128.3 961 102.7 961 77 961C51.3 961 25.7 961 12.8 961L0 961Z" fill="#af47d2"></path></svg>