<?xml version="1.0" encoding="UTF-8" standalone="no" ?>
<!DOCTYPE svg PUBLIC "-//W3C//DTD SVG 1.1//EN" "http://www.w3.org/Graphics/SVG/1.1/DTD/svg11.dtd">
<svg xmlns="http://www.w3.org/2000/svg" xmlns:xlink="http://www.w3.org/1999/xlink" version="1.1" width="1080" height="1080" viewBox="0 0 1080 1080" xml:space="preserve">
<desc>Created with Fabric.js 5.2.4</desc>
<defs>
</defs>
<g transform="matrix(1 0 0 1 540 540)" id="0a4055bb-aa63-4d01-9c8b-caca202949be"  >
<rect style="stroke: none; stroke-width: 1; stroke-dasharray: none; stroke-linecap: butt; stroke-dashoffset: 0; stroke-linejoin: miter; stroke-miterlimit: 4; fill: rgb(255,255,255); fill-rule: nonzero; opacity: 1; visibility: hidden;" vector-effect="non-scaling-stroke"  x="-540" y="-540" rx="0" ry="0" width="1080" height="1080" />
</g>
<g transform="matrix(1 0 0 1 540 540)" id="2f127d41-d5b2-49d6-98fd-8ac80b8e3cf3"  >
</g>
<g transform="matrix(1 0 0 1 540 540)"  >
<g style="" vector-effect="non-scaling-stroke"   >
		<g transform="matrix(1 0 0 1 0 0)"  >
<path style="stroke: none; stroke-width: 1; stroke-dasharray: none; stroke-linecap: butt; stroke-dashoffset: 0; stroke-linejoin: miter; stroke-miterlimit: 4; fill: rgb(24,33,55); fill-rule: nonzero; opacity: 1;" vector-effect="non-scaling-stroke"  transform=" translate(-270, -849)" d="M 0 813 L 12.8 817.7 C 25.7 822.3 51.3 831.7 77 831.8 C 102.7 832 128.3 823 154 823.2 C 179.7 823.3 205.3 832.7 231.2 815.8 C 257 799 283 756 308.8 746.8 C 334.7 737.7 360.3 762.3 386 767.7 C 411.7 773 437.3 759 463 750.7 C 488.7 742.3 514.3 739.7 527.2 738.3 L 540 737 L 540 961 L 527.2 961 C 514.3 961 488.7 961 463 961 C 437.3 961 411.7 961 386 961 C 360.3 961 334.7 961 308.8 961 C 283 961 257 961 231.2 961 C 205.3 961 179.7 961 154 961 C 128.3 961 102.7 961 77 961 C 51.3 961 25.7 961 12.8 961 L 0 961 Z" stroke-linecap="round" />
</g>
		<g transform="matrix(1 0 0 1 0 15.89)"  >
<path style="stroke: none; stroke-width: 1; stroke-dasharray: none; stroke-linecap: butt; stroke-dashoffset: 0; stroke-linejoin: miter; stroke-miterlimit: 4; fill: rgb(49,54,112); fill-rule: nonzero; opacity: 1;" vector-effect="non-scaling-stroke"  transform=" translate(-270, -864.89)" d="M 0 776 L 12.8 789 C 25.7 802 51.3 828 77 826.5 C 102.7 825 128.3 796 154 782 C 179.7 768 205.3 769 231.2 777.3 C 257 785.7 283 801.3 308.8 805 C 334.7 808.7 360.3 800.3 386 791.5 C 411.7 782.7 437.3 773.3 463 770.2 C 488.7 767 514.3 770 527.2 771.5 L 540 773 L 540 961 L 527.2 961 C 514.3 961 488.7 961 463 961 C 437.3 961 411.7 961 386 961 C 360.3 961 334.7 961 308.8 961 C 283 961 257 961 231.2 961 C 205.3 961 179.7 961 154 961 C 128.3 961 102.7 961 77 961 C 51.3 961 25.7 961 12.8 961 L 0 961 Z" stroke-linecap="round" />
</g>
		<g transform="matrix(1 0 0 1 0 39.69)"  >
<path style="stroke: none; stroke-width: 1; stroke-dasharray: none; stroke-linecap: butt; stroke-dashoffset: 0; stroke-linejoin: miter; stroke-miterlimit: 4; fill: rgb(102,69,166); fill-rule: nonzero; opacity: 1;" vector-effect="non-scaling-stroke"  transform=" translate(-270, -888.69)" d="M 0 887 L 12.8 888.3 C 25.7 889.7 51.3 892.3 77 879.3 C 102.7 866.3 128.3 837.7 154 826.2 C 179.7 814.7 205.3 820.3 231.2 835.8 C 257 851.3 283 876.7 308.8 875.2 C 334.7 873.7 360.3 845.3 386 829.8 C 411.7 814.3 437.3 811.7 463 824.8 C 488.7 838 514.3 867 527.2 881.5 L 540 896 L 540 961 L 527.2 961 C 514.3 961 488.7 961 463 961 C 437.3 961 411.7 961 386 961 C 360.3 961 334.7 961 308.8 961 C 283 961 257 961 231.2 961 C 205.3 961 179.7 961 154 961 C 128.3 961 102.7 961 77 961 C 51.3 961 25.7 961 12.8 961 L 0 961 Z" stroke-linecap="round" />
</g>
		<g transform="matrix(1 0 0 1 0 68)"  >
<path style="stroke: none; stroke-width: 1; stroke-dasharray: none; stroke-linecap: butt; stroke-dashoffset: 0; stroke-linejoin: miter; stroke-miterlimit: 4; fill: rgb(175,71,210); fill-rule: nonzero; opacity: 1;" vector-effect="non-scaling-stroke"  transform=" translate(-270, -917)" d="M 0 897 L 12.8 901.7 C 25.7 906.3 51.3 915.7 77 919.2 C 102.7 922.7 128.3 920.3 154 915 C 179.7 909.7 205.3 901.3 231.2 904.5 C 257 907.7 283 922.3 308.8 919.2 C 334.7 916 360.3 895 386 890.3 C 411.7 885.7 437.3 897.3 463 897.2 C 488.7 897 514.3 885 527.2 879 L 540 873 L 540 961 L 527.2 961 C 514.3 961 488.7 961 463 961 C 437.3 961 411.7 961 386 961 C 360.3 961 334.7 961 308.8 961 C 283 961 257 961 231.2 961 C 205.3 961 179.7 961 154 961 C 128.3 961 102.7 961 77 961 C 51.3 961 25.7 961 12.8 961 L 0 961 Z" stroke-linecap="round" />
</g>
</g>
</g>
</svg>