<svg width="430" height="341" viewBox="0 0 430 341" fill="none" xmlns="http://www.w3.org/2000/svg">
<g filter="url(#filter0_i_9_175)">
<rect x="47.9954" y="27" width="343.804" height="286" rx="4" fill="#182137"/>
</g>
<g filter="url(#filter1_d_9_175)">
<mask id="path-2-outside-1_9_175" maskUnits="userSpaceOnUse" x="19" y="22" width="188" height="93" fill="black">
<rect fill="white" x="19" y="22" width="188" height="93"/>
<path d="M23.0185 41.7443V27.5455H89.9162V41.7443H64.9787V109H47.956V41.7443H23.0185ZM117.035 27.5455V109H99.8132V27.5455H117.035ZM201.953 56.0625H184.533C184.215 53.8087 183.565 51.8068 182.584 50.0568C181.603 48.2803 180.343 46.7689 178.805 45.5227C177.268 44.2765 175.491 43.322 173.476 42.6591C171.487 41.9962 169.326 41.6648 166.993 41.6648C162.777 41.6648 159.105 42.7121 155.976 44.8068C152.847 46.875 150.421 49.8977 148.697 53.875C146.974 57.8258 146.112 62.625 146.112 68.2727C146.112 74.0795 146.974 78.9583 148.697 82.9091C150.447 86.8598 152.887 89.8428 156.016 91.858C159.144 93.8731 162.764 94.8807 166.874 94.8807C169.18 94.8807 171.315 94.5758 173.277 93.9659C175.266 93.3561 177.029 92.4678 178.567 91.3011C180.105 90.108 181.377 88.6629 182.385 86.9659C183.419 85.2689 184.135 83.3333 184.533 81.1591L201.953 81.2386C201.502 84.9773 200.376 88.5833 198.572 92.0568C196.796 95.5038 194.396 98.5928 191.374 101.324C188.377 104.028 184.798 106.176 180.635 107.767C176.499 109.331 171.819 110.114 166.595 110.114C159.33 110.114 152.834 108.47 147.107 105.182C141.406 101.894 136.898 97.1345 133.584 90.9034C130.296 84.6723 128.652 77.1288 128.652 68.2727C128.652 59.3902 130.322 51.8333 133.663 45.6023C137.004 39.3712 141.538 34.625 147.266 31.3636C152.993 28.0758 159.436 26.4318 166.595 26.4318C171.315 26.4318 175.69 27.0947 179.72 28.4205C183.777 29.7462 187.37 31.6818 190.499 34.2273C193.627 36.7462 196.173 39.8352 198.135 43.4943C200.124 47.1534 201.396 51.3428 201.953 56.0625Z"/>
</mask>
<path d="M23.0185 41.7443V27.5455H89.9162V41.7443H64.9787V109H47.956V41.7443H23.0185ZM117.035 27.5455V109H99.8132V27.5455H117.035ZM201.953 56.0625H184.533C184.215 53.8087 183.565 51.8068 182.584 50.0568C181.603 48.2803 180.343 46.7689 178.805 45.5227C177.268 44.2765 175.491 43.322 173.476 42.6591C171.487 41.9962 169.326 41.6648 166.993 41.6648C162.777 41.6648 159.105 42.7121 155.976 44.8068C152.847 46.875 150.421 49.8977 148.697 53.875C146.974 57.8258 146.112 62.625 146.112 68.2727C146.112 74.0795 146.974 78.9583 148.697 82.9091C150.447 86.8598 152.887 89.8428 156.016 91.858C159.144 93.8731 162.764 94.8807 166.874 94.8807C169.18 94.8807 171.315 94.5758 173.277 93.9659C175.266 93.3561 177.029 92.4678 178.567 91.3011C180.105 90.108 181.377 88.6629 182.385 86.9659C183.419 85.2689 184.135 83.3333 184.533 81.1591L201.953 81.2386C201.502 84.9773 200.376 88.5833 198.572 92.0568C196.796 95.5038 194.396 98.5928 191.374 101.324C188.377 104.028 184.798 106.176 180.635 107.767C176.499 109.331 171.819 110.114 166.595 110.114C159.33 110.114 152.834 108.47 147.107 105.182C141.406 101.894 136.898 97.1345 133.584 90.9034C130.296 84.6723 128.652 77.1288 128.652 68.2727C128.652 59.3902 130.322 51.8333 133.663 45.6023C137.004 39.3712 141.538 34.625 147.266 31.3636C152.993 28.0758 159.436 26.4318 166.595 26.4318C171.315 26.4318 175.69 27.0947 179.72 28.4205C183.777 29.7462 187.37 31.6818 190.499 34.2273C193.627 36.7462 196.173 39.8352 198.135 43.4943C200.124 47.1534 201.396 51.3428 201.953 56.0625Z" fill="#FFDB00"/>
<path d="M23.0185 41.7443H19.0185V45.7443H23.0185V41.7443ZM23.0185 27.5455V23.5455H19.0185V27.5455H23.0185ZM89.9162 27.5455H93.9162V23.5455H89.9162V27.5455ZM89.9162 41.7443V45.7443H93.9162V41.7443H89.9162ZM64.9787 41.7443V37.7443H60.9787V41.7443H64.9787ZM64.9787 109V113H68.9787V109H64.9787ZM47.956 109H43.956V113H47.956V109ZM47.956 41.7443H51.956V37.7443H47.956V41.7443ZM27.0185 41.7443V27.5455H19.0185V41.7443H27.0185ZM23.0185 31.5455H89.9162V23.5455H23.0185V31.5455ZM85.9162 27.5455V41.7443H93.9162V27.5455H85.9162ZM89.9162 37.7443H64.9787V45.7443H89.9162V37.7443ZM60.9787 41.7443V109H68.9787V41.7443H60.9787ZM64.9787 105H47.956V113H64.9787V105ZM51.956 109V41.7443H43.956V109H51.956ZM47.956 37.7443H23.0185V45.7443H47.956V37.7443ZM117.035 27.5455H121.035V23.5455H117.035V27.5455ZM117.035 109V113H121.035V109H117.035ZM99.8132 109H95.8132V113H99.8132V109ZM99.8132 27.5455V23.5455H95.8132V27.5455H99.8132ZM113.035 27.5455V109H121.035V27.5455H113.035ZM117.035 105H99.8132V113H117.035V105ZM103.813 109V27.5455H95.8132V109H103.813ZM99.8132 31.5455H117.035V23.5455H99.8132V31.5455ZM201.953 56.0625V60.0625H206.453L205.926 55.5938L201.953 56.0625ZM184.533 56.0625L180.572 56.6217L181.058 60.0625H184.533V56.0625ZM182.584 50.0568L179.082 51.9905L179.088 52.0017L179.095 52.0128L182.584 50.0568ZM178.805 45.5227L176.287 48.6305L176.287 48.6305L178.805 45.5227ZM173.476 42.6591L172.211 46.4538L172.218 46.4563L172.226 46.4588L173.476 42.6591ZM155.976 44.8068L158.182 48.1437L158.191 48.1372L158.201 48.1307L155.976 44.8068ZM148.697 53.875L152.364 55.4744L152.368 55.4654L148.697 53.875ZM148.697 82.9091L145.031 84.5085L145.036 84.5188L145.04 84.5291L148.697 82.9091ZM156.016 91.858L153.85 95.2208L153.85 95.2208L156.016 91.858ZM173.277 93.9659L172.104 90.1417L172.097 90.1439L172.09 90.1462L173.277 93.9659ZM178.567 91.3011L180.984 94.4879L181.002 94.4748L181.019 94.4615L178.567 91.3011ZM182.385 86.9659L178.969 84.8844L178.957 84.904L178.946 84.9238L182.385 86.9659ZM184.533 81.1591L184.551 77.1591L181.201 77.1438L180.598 80.4393L184.533 81.1591ZM201.953 81.2386L205.924 81.7174L206.462 77.2592L201.971 77.2387L201.953 81.2386ZM198.572 92.0568L195.022 90.214L195.017 90.2243L198.572 92.0568ZM191.374 101.324L194.054 104.293L194.055 104.292L191.374 101.324ZM180.635 107.767L182.05 111.508L182.063 111.503L180.635 107.767ZM147.107 105.182L145.108 108.647L145.115 108.651L147.107 105.182ZM133.584 90.9034L130.046 92.7701L130.052 92.7819L133.584 90.9034ZM133.663 45.6023L137.189 47.4924L137.189 47.4924L133.663 45.6023ZM147.266 31.3636L149.245 34.8396L149.257 34.8326L147.266 31.3636ZM179.72 28.4205L178.47 32.2202L178.478 32.2226L179.72 28.4205ZM190.499 34.2273L187.974 37.3301L187.982 37.3366L187.99 37.343L190.499 34.2273ZM198.135 43.4943L194.61 45.3846L194.615 45.3945L194.62 45.4044L198.135 43.4943ZM201.953 52.0625H184.533V60.0625H201.953V52.0625ZM188.493 55.5033C188.115 52.8242 187.327 50.3373 186.073 48.1008L179.095 52.0128C179.803 53.2763 180.314 54.7932 180.572 56.6217L188.493 55.5033ZM186.085 48.1231C184.862 45.9072 183.272 43.9938 181.324 42.415L176.287 48.6305C177.415 49.544 178.344 50.6534 179.082 51.9905L186.085 48.1231ZM181.324 42.415C179.382 40.8417 177.169 39.6631 174.726 38.8594L172.226 46.4588C173.813 46.9809 175.153 47.7113 176.287 48.6305L181.324 42.415ZM174.741 38.8644C172.301 38.0511 169.708 37.6648 166.993 37.6648V45.6648C168.945 45.6648 170.674 45.9413 172.211 46.4538L174.741 38.8644ZM166.993 37.6648C162.083 37.6648 157.615 38.8958 153.751 41.483L158.201 48.1307C160.594 46.5285 163.471 45.6648 166.993 45.6648V37.6648ZM153.77 41.4699C149.898 44.0294 147.01 47.709 145.027 52.2846L152.368 55.4654C153.832 52.0865 155.796 49.7206 158.182 48.1437L153.77 41.4699ZM145.031 52.2756C143.031 56.8613 142.112 62.2374 142.112 68.2727H150.112C150.112 63.0126 150.917 58.7902 152.364 55.4744L145.031 52.2756ZM142.112 68.2727C142.112 74.4495 143.025 79.9106 145.031 84.5085L152.364 81.3097C150.923 78.0061 150.112 73.7096 150.112 68.2727H142.112ZM145.04 84.5291C147.054 89.0762 149.964 92.718 153.85 95.2208L158.182 88.4951C155.81 86.9676 153.841 84.6435 152.355 81.2891L145.04 84.5291ZM153.85 95.2208C157.691 97.6947 162.079 98.8807 166.874 98.8807V90.8807C163.449 90.8807 160.598 90.0515 158.182 88.4951L153.85 95.2208ZM166.874 98.8807C169.534 98.8807 172.074 98.5286 174.464 97.7857L172.09 90.1462C170.556 90.6229 168.827 90.8807 166.874 90.8807V98.8807ZM174.45 97.7901C176.853 97.0533 179.044 95.9598 180.984 94.4879L176.149 88.1144C175.014 88.9758 173.679 89.6589 172.104 90.1417L174.45 97.7901ZM181.019 94.4615C182.959 92.9564 184.564 91.1302 185.824 89.0081L178.946 84.9238C178.19 86.1955 177.251 87.2595 176.115 88.1408L181.019 94.4615ZM185.801 89.0474C187.117 86.8877 187.991 84.481 188.467 81.8789L180.598 80.4393C180.279 82.1856 179.721 83.6502 178.969 84.8844L185.801 89.0474ZM184.514 85.159L201.935 85.2386L201.971 77.2387L184.551 77.1591L184.514 85.159ZM197.982 80.7598C197.591 84.0036 196.613 87.1493 195.022 90.214L202.123 93.8997C204.138 90.0174 205.414 85.9509 205.924 81.7174L197.982 80.7598ZM195.017 90.2243C193.472 93.2219 191.376 95.9311 188.692 98.3559L194.055 104.292C197.417 101.254 200.12 97.7856 202.128 93.8893L195.017 90.2243ZM188.693 98.3546C186.1 100.696 182.957 102.598 179.207 104.031L182.063 111.503C186.639 109.755 190.655 107.361 194.054 104.293L188.693 98.3546ZM179.22 104.026C175.61 105.391 171.421 106.114 166.595 106.114V114.114C172.216 114.114 177.388 113.272 182.05 111.508L179.22 104.026ZM166.595 106.114C159.957 106.114 154.16 104.619 149.098 101.713L145.115 108.651C151.508 112.321 158.703 114.114 166.595 114.114V106.114ZM149.105 101.717C144.101 98.8309 140.104 94.6439 137.115 89.025L130.052 92.7819C133.692 99.625 138.71 104.957 145.108 108.647L149.105 101.717ZM137.122 89.0367C134.205 83.5102 132.652 76.6419 132.652 68.2727H124.652C124.652 77.6157 126.386 85.8345 130.046 92.7701L137.122 89.0367ZM132.652 68.2727C132.652 59.8839 134.229 53.0118 137.189 47.4924L130.138 43.7121C126.416 50.6549 124.652 58.8964 124.652 68.2727H132.652ZM137.189 47.4924C140.201 41.8746 144.22 37.7011 149.245 34.8396L145.286 27.8877C138.857 31.5489 133.808 36.8678 130.138 43.7121L137.189 47.4924ZM149.257 34.8326C154.328 31.9216 160.074 30.4318 166.595 30.4318V22.4318C158.798 22.4318 151.658 24.2299 145.274 27.8946L149.257 34.8326ZM166.595 30.4318C170.938 30.4318 174.886 31.0411 178.47 32.2202L180.97 24.6207C176.494 23.1483 171.692 22.4318 166.595 22.4318V30.4318ZM178.478 32.2226C182.095 33.4048 185.248 35.1121 187.974 37.3301L193.023 31.1244C189.492 28.2515 185.459 26.0876 180.963 24.6183L178.478 32.2226ZM187.99 37.343C190.687 39.5143 192.892 42.1818 194.61 45.3846L201.66 41.604C199.453 37.4887 196.568 33.9781 193.007 31.1115L187.99 37.343ZM194.62 45.4044C196.334 48.5579 197.475 52.246 197.981 56.5312L205.926 55.5938C205.318 50.4396 203.913 45.7489 201.649 41.5843L194.62 45.4044Z" fill="black" mask="url(#path-2-outside-1_9_175)"/>
</g>
<g filter="url(#filter2_d_9_175)">
<mask id="path-4-outside-2_9_175" maskUnits="userSpaceOnUse" x="87" y="124" width="271" height="93" fill="black">
<rect fill="white" x="87" y="124" width="271" height="93"/>
<path d="M128.434 163.551V176.994H91.2858V163.551H128.434ZM135.576 143.744V129.545H202.474V143.744H177.537V211H160.514V143.744H135.576ZM216.458 211H198.003L226.123 129.545H248.316L276.395 211H257.941L237.537 148.159H236.901L216.458 211ZM215.304 178.983H258.895V192.426H215.304V178.983ZM353.12 158.062H335.7C335.382 155.809 334.732 153.807 333.751 152.057C332.77 150.28 331.511 148.769 329.973 147.523C328.435 146.277 326.658 145.322 324.643 144.659C322.655 143.996 320.494 143.665 318.16 143.665C313.944 143.665 310.272 144.712 307.143 146.807C304.014 148.875 301.588 151.898 299.865 155.875C298.141 159.826 297.28 164.625 297.28 170.273C297.28 176.08 298.141 180.958 299.865 184.909C301.615 188.86 304.054 191.843 307.183 193.858C310.312 195.873 313.931 196.881 318.041 196.881C320.348 196.881 322.482 196.576 324.444 195.966C326.433 195.356 328.196 194.468 329.734 193.301C331.272 192.108 332.545 190.663 333.552 188.966C334.586 187.269 335.302 185.333 335.7 183.159L353.12 183.239C352.67 186.977 351.543 190.583 349.74 194.057C347.963 197.504 345.564 200.593 342.541 203.324C339.545 206.028 335.965 208.176 331.802 209.767C327.666 211.331 322.986 212.114 317.762 212.114C310.497 212.114 304.001 210.47 298.274 207.182C292.573 203.894 288.065 199.134 284.751 192.903C281.463 186.672 279.819 179.129 279.819 170.273C279.819 161.39 281.49 153.833 284.831 147.602C288.172 141.371 292.706 136.625 298.433 133.364C304.16 130.076 310.603 128.432 317.762 128.432C322.482 128.432 326.857 129.095 330.887 130.42C334.944 131.746 338.537 133.682 341.666 136.227C344.795 138.746 347.34 141.835 349.302 145.494C351.291 149.153 352.564 153.343 353.12 158.062Z"/>
</mask>
<path d="M128.434 163.551V176.994H91.2858V163.551H128.434ZM135.576 143.744V129.545H202.474V143.744H177.537V211H160.514V143.744H135.576ZM216.458 211H198.003L226.123 129.545H248.316L276.395 211H257.941L237.537 148.159H236.901L216.458 211ZM215.304 178.983H258.895V192.426H215.304V178.983ZM353.12 158.062H335.7C335.382 155.809 334.732 153.807 333.751 152.057C332.77 150.28 331.511 148.769 329.973 147.523C328.435 146.277 326.658 145.322 324.643 144.659C322.655 143.996 320.494 143.665 318.16 143.665C313.944 143.665 310.272 144.712 307.143 146.807C304.014 148.875 301.588 151.898 299.865 155.875C298.141 159.826 297.28 164.625 297.28 170.273C297.28 176.08 298.141 180.958 299.865 184.909C301.615 188.86 304.054 191.843 307.183 193.858C310.312 195.873 313.931 196.881 318.041 196.881C320.348 196.881 322.482 196.576 324.444 195.966C326.433 195.356 328.196 194.468 329.734 193.301C331.272 192.108 332.545 190.663 333.552 188.966C334.586 187.269 335.302 185.333 335.7 183.159L353.12 183.239C352.67 186.977 351.543 190.583 349.74 194.057C347.963 197.504 345.564 200.593 342.541 203.324C339.545 206.028 335.965 208.176 331.802 209.767C327.666 211.331 322.986 212.114 317.762 212.114C310.497 212.114 304.001 210.47 298.274 207.182C292.573 203.894 288.065 199.134 284.751 192.903C281.463 186.672 279.819 179.129 279.819 170.273C279.819 161.39 281.49 153.833 284.831 147.602C288.172 141.371 292.706 136.625 298.433 133.364C304.16 130.076 310.603 128.432 317.762 128.432C322.482 128.432 326.857 129.095 330.887 130.42C334.944 131.746 338.537 133.682 341.666 136.227C344.795 138.746 347.34 141.835 349.302 145.494C351.291 149.153 352.564 153.343 353.12 158.062Z" fill="#FFDB00"/>
<path d="M128.434 163.551H132.434V159.551H128.434V163.551ZM128.434 176.994V180.994H132.434V176.994H128.434ZM91.2858 176.994H87.2858V180.994H91.2858V176.994ZM91.2858 163.551V159.551H87.2858V163.551H91.2858ZM124.434 163.551V176.994H132.434V163.551H124.434ZM128.434 172.994H91.2858V180.994H128.434V172.994ZM95.2858 176.994V163.551H87.2858V176.994H95.2858ZM91.2858 167.551H128.434V159.551H91.2858V167.551ZM135.576 143.744H131.576V147.744H135.576V143.744ZM135.576 129.545V125.545H131.576V129.545H135.576ZM202.474 129.545H206.474V125.545H202.474V129.545ZM202.474 143.744V147.744H206.474V143.744H202.474ZM177.537 143.744V139.744H173.537V143.744H177.537ZM177.537 211V215H181.537V211H177.537ZM160.514 211H156.514V215H160.514V211ZM160.514 143.744H164.514V139.744H160.514V143.744ZM139.576 143.744V129.545H131.576V143.744H139.576ZM135.576 133.545H202.474V125.545H135.576V133.545ZM198.474 129.545V143.744H206.474V129.545H198.474ZM202.474 139.744H177.537V147.744H202.474V139.744ZM173.537 143.744V211H181.537V143.744H173.537ZM177.537 207H160.514V215H177.537V207ZM164.514 211V143.744H156.514V211H164.514ZM160.514 139.744H135.576V147.744H160.514V139.744ZM216.458 211V215H219.363L220.262 212.237L216.458 211ZM198.003 211L194.222 209.695L192.391 215H198.003V211ZM226.123 129.545V125.545H223.272L222.341 128.24L226.123 129.545ZM248.316 129.545L252.097 128.242L251.168 125.545H248.316V129.545ZM276.395 211V215H282.005L280.177 209.696L276.395 211ZM257.941 211L254.136 212.235L255.034 215H257.941V211ZM237.537 148.159L241.342 146.924L240.444 144.159H237.537V148.159ZM236.901 148.159V144.159H233.996L233.097 146.922L236.901 148.159ZM215.304 178.983V174.983H211.304V178.983H215.304ZM258.895 178.983H262.895V174.983H258.895V178.983ZM258.895 192.426V196.426H262.895V192.426H258.895ZM215.304 192.426H211.304V196.426H215.304V192.426ZM216.458 207H198.003V215H216.458V207ZM201.784 212.305L229.904 130.851L222.341 128.24L194.222 209.695L201.784 212.305ZM226.123 133.545H248.316V125.545H226.123V133.545ZM244.534 130.849L272.614 212.304L280.177 209.696L252.097 128.242L244.534 130.849ZM276.395 207H257.941V215H276.395V207ZM261.745 209.765L241.342 146.924L233.733 149.394L254.136 212.235L261.745 209.765ZM237.537 144.159H236.901V152.159H237.537V144.159ZM233.097 146.922L212.654 209.763L220.262 212.237L240.705 149.397L233.097 146.922ZM215.304 182.983H258.895V174.983H215.304V182.983ZM254.895 178.983V192.426H262.895V178.983H254.895ZM258.895 188.426H215.304V196.426H258.895V188.426ZM219.304 192.426V178.983H211.304V192.426H219.304ZM353.12 158.062V162.062H357.62L357.093 157.594L353.12 158.062ZM335.7 158.062L331.739 158.622L332.225 162.062H335.7V158.062ZM333.751 152.057L330.25 153.991L330.256 154.002L330.262 154.013L333.751 152.057ZM329.973 147.523L327.454 150.63L327.454 150.63L329.973 147.523ZM324.643 144.659L323.378 148.454L323.386 148.456L323.393 148.459L324.643 144.659ZM307.143 146.807L309.349 150.144L309.359 150.137L309.368 150.131L307.143 146.807ZM299.865 155.875L303.531 157.474L303.535 157.465L299.865 155.875ZM299.865 184.909L296.198 186.508L296.203 186.519L296.207 186.529L299.865 184.909ZM307.183 193.858L305.017 197.221L305.017 197.221L307.183 193.858ZM324.444 195.966L323.272 192.142L323.264 192.144L323.257 192.146L324.444 195.966ZM329.734 193.301L332.152 196.488L332.169 196.475L332.186 196.461L329.734 193.301ZM333.552 188.966L330.136 186.884L330.125 186.904L330.113 186.924L333.552 188.966ZM335.7 183.159L335.718 179.159L332.368 179.144L331.765 182.439L335.7 183.159ZM353.12 183.239L357.092 183.717L357.629 179.259L353.139 179.239L353.12 183.239ZM349.74 194.057L346.19 192.214L346.184 192.224L349.74 194.057ZM342.541 203.324L345.221 206.293L345.222 206.292L342.541 203.324ZM331.802 209.767L333.217 213.508L333.23 213.503L331.802 209.767ZM298.274 207.182L296.275 210.647L296.282 210.651L298.274 207.182ZM284.751 192.903L281.213 194.77L281.22 194.782L284.751 192.903ZM284.831 147.602L288.356 149.492L288.356 149.492L284.831 147.602ZM298.433 133.364L300.412 136.84L300.424 136.833L298.433 133.364ZM330.887 130.42L329.638 134.22L329.645 134.223L330.887 130.42ZM341.666 136.227L339.142 139.33L339.149 139.337L339.157 139.343L341.666 136.227ZM349.302 145.494L345.777 147.385L345.782 147.395L345.788 147.404L349.302 145.494ZM353.12 154.062H335.7V162.062H353.12V154.062ZM339.661 157.503C339.282 154.824 338.494 152.337 337.24 150.101L330.262 154.013C330.97 155.276 331.481 156.793 331.739 158.622L339.661 157.503ZM337.253 150.123C336.029 147.907 334.439 145.994 332.491 144.415L327.454 150.63C328.582 151.544 329.511 152.653 330.25 153.991L337.253 150.123ZM332.491 144.415C330.55 142.842 328.336 141.663 325.893 140.859L323.393 148.459C324.98 148.981 326.32 149.711 327.454 150.63L332.491 144.415ZM325.908 140.864C323.468 140.051 320.875 139.665 318.16 139.665V147.665C320.112 147.665 321.841 147.941 323.378 148.454L325.908 140.864ZM318.16 139.665C313.25 139.665 308.782 140.896 304.918 143.483L309.368 150.131C311.762 148.528 314.638 147.665 318.16 147.665V139.665ZM304.937 143.47C301.065 146.029 298.177 149.709 296.195 154.285L303.535 157.465C304.999 154.086 306.963 151.721 309.349 150.144L304.937 143.47ZM296.198 154.276C294.198 158.861 293.28 164.237 293.28 170.273H301.28C301.28 165.013 302.085 160.79 303.531 157.474L296.198 154.276ZM293.28 170.273C293.28 176.449 294.193 181.911 296.198 186.508L303.531 183.31C302.09 180.006 301.28 175.71 301.28 170.273H293.28ZM296.207 186.529C298.222 191.076 301.131 194.718 305.017 197.221L309.349 190.495C306.977 188.968 305.008 186.644 303.522 183.289L296.207 186.529ZM305.017 197.221C308.858 199.695 313.246 200.881 318.041 200.881V192.881C314.616 192.881 311.765 192.051 309.349 190.495L305.017 197.221ZM318.041 200.881C320.702 200.881 323.241 200.529 325.632 199.786L323.257 192.146C321.723 192.623 319.994 192.881 318.041 192.881V200.881ZM325.617 199.79C328.02 199.053 330.211 197.96 332.152 196.488L327.317 190.114C326.181 190.976 324.846 191.659 323.272 192.142L325.617 199.79ZM332.186 196.461C334.126 194.956 335.732 193.13 336.992 191.008L330.113 186.924C329.358 188.196 328.418 189.259 327.282 190.141L332.186 196.461ZM336.968 191.047C338.284 188.888 339.159 186.481 339.635 183.879L331.765 182.439C331.446 184.186 330.889 185.65 330.136 186.884L336.968 191.047ZM335.682 187.159L353.102 187.239L353.139 179.239L335.718 179.159L335.682 187.159ZM349.149 182.76C348.758 186.004 347.78 189.149 346.19 192.214L353.29 195.9C355.305 192.017 356.581 187.951 357.092 183.717L349.149 182.76ZM346.184 192.224C344.639 195.222 342.543 197.931 339.859 200.356L345.222 206.292C348.584 203.254 351.287 199.786 353.295 195.889L346.184 192.224ZM339.861 200.355C337.267 202.696 334.124 204.598 330.374 206.031L333.23 213.503C337.806 211.755 341.822 209.361 345.221 206.293L339.861 200.355ZM330.387 206.026C326.777 207.391 322.588 208.114 317.762 208.114V216.114C323.384 216.114 328.555 215.272 333.217 213.508L330.387 206.026ZM317.762 208.114C311.124 208.114 305.327 206.619 300.265 203.713L296.282 210.651C302.675 214.321 309.87 216.114 317.762 216.114V208.114ZM300.272 203.717C295.269 200.831 291.271 196.644 288.283 191.025L281.22 194.782C284.86 201.625 289.878 206.957 296.275 210.647L300.272 203.717ZM288.289 191.037C285.373 185.51 283.819 178.642 283.819 170.273H275.819C275.819 179.616 277.554 187.834 281.213 194.77L288.289 191.037ZM283.819 170.273C283.819 161.884 285.397 155.012 288.356 149.492L281.305 145.712C277.583 152.655 275.819 160.896 275.819 170.273H283.819ZM288.356 149.492C291.368 143.875 295.387 139.701 300.412 136.84L296.454 129.888C290.024 133.549 284.975 138.868 281.305 145.712L288.356 149.492ZM300.424 136.833C305.495 133.922 311.242 132.432 317.762 132.432V124.432C309.965 124.432 302.825 126.23 296.441 129.895L300.424 136.833ZM317.762 132.432C322.105 132.432 326.053 133.041 329.638 134.22L332.137 126.621C327.661 125.148 322.86 124.432 317.762 124.432V132.432ZM329.645 134.223C333.263 135.405 336.415 137.112 339.142 139.33L344.19 133.124C340.659 130.252 336.626 128.088 332.13 126.618L329.645 134.223ZM339.157 139.343C341.854 141.514 344.06 144.182 345.777 147.385L352.827 143.604C350.621 139.489 347.735 135.978 344.174 133.112L339.157 139.343ZM345.788 147.404C347.502 150.558 348.642 154.246 349.148 158.531L357.093 157.594C356.485 152.44 355.08 147.749 352.817 143.584L345.788 147.404Z" fill="black" mask="url(#path-4-outside-2_9_175)"/>
</g>
<g filter="url(#filter3_d_9_175)">
<mask id="path-6-outside-3_9_175" maskUnits="userSpaceOnUse" x="150.13" y="227" width="268" height="93" fill="black">
<rect fill="white" x="150.13" y="227" width="268" height="93"/>
<path d="M191.873 266.551V279.994H154.726V266.551H191.873ZM199.016 246.744V232.545H265.914V246.744H240.976V314H223.954V246.744H199.016ZM346.945 273.273C346.945 282.155 345.261 289.712 341.893 295.943C338.553 302.174 333.992 306.934 328.212 310.222C322.458 313.483 315.988 315.114 308.803 315.114C301.564 315.114 295.068 313.47 289.314 310.182C283.56 306.894 279.013 302.134 275.672 295.903C272.331 289.672 270.66 282.129 270.66 273.273C270.66 264.39 272.331 256.833 275.672 250.602C279.013 244.371 283.56 239.625 289.314 236.364C295.068 233.076 301.564 231.432 308.803 231.432C315.988 231.432 322.458 233.076 328.212 236.364C333.992 239.625 338.553 244.371 341.893 250.602C345.261 256.833 346.945 264.39 346.945 273.273ZM329.484 273.273C329.484 267.519 328.623 262.667 326.899 258.716C325.202 254.765 322.803 251.769 319.7 249.727C316.598 247.686 312.965 246.665 308.803 246.665C304.64 246.665 301.007 247.686 297.905 249.727C294.803 251.769 292.39 254.765 290.666 258.716C288.969 262.667 288.121 267.519 288.121 273.273C288.121 279.027 288.969 283.879 290.666 287.83C292.39 291.78 294.803 294.777 297.905 296.818C301.007 298.86 304.64 299.881 308.803 299.881C312.965 299.881 316.598 298.86 319.7 296.818C322.803 294.777 325.202 291.78 326.899 287.83C328.623 283.879 329.484 279.027 329.484 273.273ZM358.582 314V232.545H413.468V246.744H375.803V266.153H410.644V280.352H375.803V299.801H413.627V314H358.582Z"/>
</mask>
<path d="M191.873 266.551V279.994H154.726V266.551H191.873ZM199.016 246.744V232.545H265.914V246.744H240.976V314H223.954V246.744H199.016ZM346.945 273.273C346.945 282.155 345.261 289.712 341.893 295.943C338.553 302.174 333.992 306.934 328.212 310.222C322.458 313.483 315.988 315.114 308.803 315.114C301.564 315.114 295.068 313.47 289.314 310.182C283.56 306.894 279.013 302.134 275.672 295.903C272.331 289.672 270.66 282.129 270.66 273.273C270.66 264.39 272.331 256.833 275.672 250.602C279.013 244.371 283.56 239.625 289.314 236.364C295.068 233.076 301.564 231.432 308.803 231.432C315.988 231.432 322.458 233.076 328.212 236.364C333.992 239.625 338.553 244.371 341.893 250.602C345.261 256.833 346.945 264.39 346.945 273.273ZM329.484 273.273C329.484 267.519 328.623 262.667 326.899 258.716C325.202 254.765 322.803 251.769 319.7 249.727C316.598 247.686 312.965 246.665 308.803 246.665C304.64 246.665 301.007 247.686 297.905 249.727C294.803 251.769 292.39 254.765 290.666 258.716C288.969 262.667 288.121 267.519 288.121 273.273C288.121 279.027 288.969 283.879 290.666 287.83C292.39 291.78 294.803 294.777 297.905 296.818C301.007 298.86 304.64 299.881 308.803 299.881C312.965 299.881 316.598 298.86 319.7 296.818C322.803 294.777 325.202 291.78 326.899 287.83C328.623 283.879 329.484 279.027 329.484 273.273ZM358.582 314V232.545H413.468V246.744H375.803V266.153H410.644V280.352H375.803V299.801H413.627V314H358.582Z" fill="#FFDB00"/>
<path d="M191.873 266.551H195.873V262.551H191.873V266.551ZM191.873 279.994V283.994H195.873V279.994H191.873ZM154.726 279.994H150.726V283.994H154.726V279.994ZM154.726 266.551V262.551H150.726V266.551H154.726ZM187.873 266.551V279.994H195.873V266.551H187.873ZM191.873 275.994H154.726V283.994H191.873V275.994ZM158.726 279.994V266.551H150.726V279.994H158.726ZM154.726 270.551H191.873V262.551H154.726V270.551ZM199.016 246.744H195.016V250.744H199.016V246.744ZM199.016 232.545V228.545H195.016V232.545H199.016ZM265.914 232.545H269.914V228.545H265.914V232.545ZM265.914 246.744V250.744H269.914V246.744H265.914ZM240.976 246.744V242.744H236.976V246.744H240.976ZM240.976 314V318H244.976V314H240.976ZM223.954 314H219.954V318H223.954V314ZM223.954 246.744H227.954V242.744H223.954V246.744ZM203.016 246.744V232.545H195.016V246.744H203.016ZM199.016 236.545H265.914V228.545H199.016V236.545ZM261.914 232.545V246.744H269.914V232.545H261.914ZM265.914 242.744H240.976V250.744H265.914V242.744ZM236.976 246.744V314H244.976V246.744H236.976ZM240.976 310H223.954V318H240.976V310ZM227.954 314V246.744H219.954V314H227.954ZM223.954 242.744H199.016V250.744H223.954V242.744ZM341.893 295.943L338.374 294.041L338.368 294.053L341.893 295.943ZM328.212 310.222L330.184 313.701L330.189 313.698L328.212 310.222ZM289.314 310.182L291.298 306.709L289.314 310.182ZM275.672 295.903L272.147 297.794L272.147 297.794L275.672 295.903ZM275.672 250.602L279.197 252.492L279.197 252.492L275.672 250.602ZM289.314 236.364L291.286 239.844L291.298 239.837L289.314 236.364ZM328.212 236.364L326.227 239.837L326.237 239.842L326.246 239.847L328.212 236.364ZM341.893 250.602L338.368 252.492L338.374 252.504L341.893 250.602ZM326.899 258.716L323.224 260.295L323.228 260.305L323.233 260.315L326.899 258.716ZM319.7 249.727L317.501 253.069L317.501 253.069L319.7 249.727ZM297.905 249.727L300.104 253.069L300.104 253.069L297.905 249.727ZM290.666 258.716L287 257.117L286.995 257.127L286.991 257.137L290.666 258.716ZM290.666 287.83L286.991 289.408L286.995 289.419L287 289.429L290.666 287.83ZM297.905 296.818L300.104 293.477L300.104 293.477L297.905 296.818ZM319.7 296.818L317.501 293.477L317.501 293.477L319.7 296.818ZM326.899 287.83L323.233 286.23L323.228 286.241L323.224 286.251L326.899 287.83ZM342.945 273.273C342.945 281.657 341.356 288.525 338.374 294.041L345.412 297.845C349.166 290.9 350.945 282.654 350.945 273.273H342.945ZM338.368 294.053C335.36 299.664 331.317 303.853 326.234 306.745L330.189 313.698C336.667 310.014 341.745 304.685 345.419 297.833L338.368 294.053ZM326.239 306.742C321.138 309.633 315.358 311.114 308.803 311.114V319.114C316.618 319.114 323.777 317.333 330.184 313.701L326.239 306.742ZM308.803 311.114C302.194 311.114 296.393 309.62 291.298 306.709L287.329 313.655C293.742 317.319 300.934 319.114 308.803 319.114V311.114ZM291.298 306.709C286.241 303.819 282.208 299.629 279.197 294.013L272.147 297.794C275.818 304.64 280.88 309.969 287.329 313.655L291.298 306.709ZM279.197 294.013C276.237 288.492 274.66 281.633 274.66 273.273H266.66C266.66 282.625 268.425 290.852 272.147 297.794L279.197 294.013ZM274.66 273.273C274.66 264.884 276.238 258.012 279.197 252.492L272.147 248.712C268.424 255.655 266.66 263.896 266.66 273.273H274.66ZM279.197 252.492C282.207 246.879 286.236 242.706 291.286 239.843L287.341 232.884C280.884 236.544 275.819 241.863 272.147 248.712L279.197 252.492ZM291.298 239.837C296.393 236.925 302.194 235.432 308.803 235.432V227.432C300.934 227.432 293.742 229.226 287.329 232.891L291.298 239.837ZM308.803 235.432C315.352 235.432 321.128 236.923 326.227 239.837L330.196 232.891C323.788 229.229 316.624 227.432 308.803 227.432V235.432ZM326.246 239.847C331.322 242.711 335.361 246.884 338.368 252.492L345.419 248.712C341.744 241.858 336.662 236.539 330.177 232.88L326.246 239.847ZM338.374 252.504C341.356 258.021 342.945 264.889 342.945 273.273H350.945C350.945 263.892 349.166 255.646 345.412 248.701L338.374 252.504ZM333.484 273.273C333.484 267.143 332.569 261.71 330.565 257.117L323.233 260.315C324.676 263.623 325.484 267.895 325.484 273.273H333.484ZM330.574 257.137C328.618 252.583 325.754 248.923 321.899 246.386L317.501 253.069C319.851 254.615 321.786 256.947 323.224 260.295L330.574 257.137ZM321.899 246.386C318.067 243.864 313.649 242.665 308.803 242.665V250.665C312.282 250.665 315.129 251.507 317.501 253.069L321.899 246.386ZM308.803 242.665C303.956 242.665 299.538 243.864 295.706 246.386L300.104 253.069C302.476 251.507 305.323 250.665 308.803 250.665V242.665ZM295.706 246.386C291.857 248.919 288.982 252.572 287 257.117L294.332 260.315C295.797 256.958 297.748 254.619 300.104 253.069L295.706 246.386ZM286.991 257.137C285.02 261.725 284.121 267.15 284.121 273.273H292.121C292.121 267.888 292.918 263.609 294.341 260.295L286.991 257.137ZM284.121 273.273C284.121 279.396 285.02 284.821 286.991 289.408L294.341 286.251C292.918 282.937 292.121 278.657 292.121 273.273H284.121ZM287 289.429C288.982 293.974 291.857 297.627 295.706 300.16L300.104 293.477C297.748 291.926 295.797 289.587 294.332 286.23L287 289.429ZM295.706 300.16C299.538 302.682 303.956 303.881 308.803 303.881V295.881C305.323 295.881 302.476 295.038 300.104 293.477L295.706 300.16ZM308.803 303.881C313.649 303.881 318.067 302.682 321.899 300.16L317.501 293.477C315.129 295.038 312.282 295.881 308.803 295.881V303.881ZM321.899 300.16C325.754 297.623 328.618 293.962 330.574 289.408L323.224 286.251C321.786 289.599 319.851 291.93 317.501 293.477L321.899 300.16ZM330.565 289.429C332.569 284.835 333.484 279.402 333.484 273.273H325.484C325.484 278.651 324.676 282.923 323.233 286.23L330.565 289.429ZM358.582 314H354.582V318H358.582V314ZM358.582 232.545V228.545H354.582V232.545H358.582ZM413.468 232.545H417.468V228.545H413.468V232.545ZM413.468 246.744V250.744H417.468V246.744H413.468ZM375.803 246.744V242.744H371.803V246.744H375.803ZM375.803 266.153H371.803V270.153H375.803V266.153ZM410.644 266.153H414.644V262.153H410.644V266.153ZM410.644 280.352V284.352H414.644V280.352H410.644ZM375.803 280.352V276.352H371.803V280.352H375.803ZM375.803 299.801H371.803V303.801H375.803V299.801ZM413.627 299.801H417.627V295.801H413.627V299.801ZM413.627 314V318H417.627V314H413.627ZM362.582 314V232.545H354.582V314H362.582ZM358.582 236.545H413.468V228.545H358.582V236.545ZM409.468 232.545V246.744H417.468V232.545H409.468ZM413.468 242.744H375.803V250.744H413.468V242.744ZM371.803 246.744V266.153H379.803V246.744H371.803ZM375.803 270.153H410.644V262.153H375.803V270.153ZM406.644 266.153V280.352H414.644V266.153H406.644ZM410.644 276.352H375.803V284.352H410.644V276.352ZM371.803 280.352V299.801H379.803V280.352H371.803ZM375.803 303.801H413.627V295.801H375.803V303.801ZM409.627 299.801V314H417.627V299.801H409.627ZM413.627 310H358.582V318H413.627V310Z" fill="black" mask="url(#path-6-outside-3_9_175)"/>
</g>
<defs>
<filter id="filter0_i_9_175" x="47.9954" y="27" width="343.804" height="286" filterUnits="userSpaceOnUse" color-interpolation-filters="sRGB">
<feFlood flood-opacity="0" result="BackgroundImageFix"/>
<feBlend mode="normal" in="SourceGraphic" in2="BackgroundImageFix" result="shape"/>
<feColorMatrix in="SourceAlpha" type="matrix" values="0 0 0 0 0 0 0 0 0 0 0 0 0 0 0 0 0 0 127 0" result="hardAlpha"/>
<feMorphology radius="20" operator="erode" in="SourceAlpha" result="effect1_innerShadow_9_175"/>
<feOffset/>
<feComposite in2="hardAlpha" operator="arithmetic" k2="-1" k3="1"/>
<feColorMatrix type="matrix" values="0 0 0 0 0.0574874 0 0 0 0 0.0799911 0 0 0 0 0.135 0 0 0 1 0"/>
<feBlend mode="normal" in2="shape" result="effect1_innerShadow_9_175"/>
</filter>
<filter id="filter1_d_9_175" x="23.0185" y="26.4318" width="183.935" height="88.6818" filterUnits="userSpaceOnUse" color-interpolation-filters="sRGB">
<feFlood flood-opacity="0" result="BackgroundImageFix"/>
<feColorMatrix in="SourceAlpha" type="matrix" values="0 0 0 0 0 0 0 0 0 0 0 0 0 0 0 0 0 0 127 0" result="hardAlpha"/>
<feOffset dx="5" dy="5"/>
<feComposite in2="hardAlpha" operator="out"/>
<feColorMatrix type="matrix" values="0 0 0 0 0.941176 0 0 0 0 0.176471 0 0 0 0 0.176471 0 0 0 1 0"/>
<feBlend mode="normal" in2="BackgroundImageFix" result="effect1_dropShadow_9_175"/>
<feBlend mode="normal" in="SourceGraphic" in2="effect1_dropShadow_9_175" result="shape"/>
</filter>
<filter id="filter2_d_9_175" x="91.2858" y="128.432" width="266.835" height="88.6818" filterUnits="userSpaceOnUse" color-interpolation-filters="sRGB">
<feFlood flood-opacity="0" result="BackgroundImageFix"/>
<feColorMatrix in="SourceAlpha" type="matrix" values="0 0 0 0 0 0 0 0 0 0 0 0 0 0 0 0 0 0 127 0" result="hardAlpha"/>
<feOffset dx="5" dy="5"/>
<feComposite in2="hardAlpha" operator="out"/>
<feColorMatrix type="matrix" values="0 0 0 0 0.941176 0 0 0 0 0.176471 0 0 0 0 0.176471 0 0 0 1 0"/>
<feBlend mode="normal" in2="BackgroundImageFix" result="effect1_dropShadow_9_175"/>
<feBlend mode="normal" in="SourceGraphic" in2="effect1_dropShadow_9_175" result="shape"/>
</filter>
<filter id="filter3_d_9_175" x="154.726" y="231.432" width="263.901" height="88.6818" filterUnits="userSpaceOnUse" color-interpolation-filters="sRGB">
<feFlood flood-opacity="0" result="BackgroundImageFix"/>
<feColorMatrix in="SourceAlpha" type="matrix" values="0 0 0 0 0 0 0 0 0 0 0 0 0 0 0 0 0 0 127 0" result="hardAlpha"/>
<feOffset dx="5" dy="5"/>
<feComposite in2="hardAlpha" operator="out"/>
<feColorMatrix type="matrix" values="0 0 0 0 0.941176 0 0 0 0 0.176471 0 0 0 0 0.176471 0 0 0 1 0"/>
<feBlend mode="normal" in2="BackgroundImageFix" result="effect1_dropShadow_9_175"/>
<feBlend mode="normal" in="SourceGraphic" in2="effect1_dropShadow_9_175" result="shape"/>
</filter>
</defs>
</svg>
